<svg xmlns="http://www.w3.org/2000/svg" width="1920" height="1080"><path d="M995,573L903,567L876,658Z" fill="#ee4b75" stroke="#ee4b75" stroke-width="1.51"/><path d="M876,658L1018,668L995,573Z" fill="#e44376" stroke="#e44376" stroke-width="1.51"/><path d="M903,567L798,672L876,658Z" fill="#e55573" stroke="#e55573" stroke-width="1.51"/><path d="M889,803L1042,768L1018,668Z" fill="#c03e75" stroke="#c03e75" stroke-width="1.51"/><path d="M1018,668L1105,631L995,573Z" fill="#d84275" stroke="#d84275" stroke-width="1.51"/><path d="M889,803L1018,668L876,658Z" fill="#cf4674" stroke="#cf4674" stroke-width="1.51"/><path d="M1018,668L1042,768L1105,631Z" fill="#c33f75" stroke="#c33f75" stroke-width="1.51"/><path d="M799,751L889,803L876,658Z" fill="#c75172" stroke="#c75172" stroke-width="1.51"/><path d="M995,573L1011,453L903,567Z" fill="#fd4976" stroke="#fd4976" stroke-width="1.51"/><path d="M903,567L781,515L798,672Z" fill="#f35c73" stroke="#f35c73" stroke-width="1.51"/><path d="M1155,523L1011,453L995,573Z" fill="#ed4b75" stroke="#ed4b75" stroke-width="1.51"/><path d="M798,672L799,751L876,658Z" fill="#d35872" stroke="#d35872" stroke-width="1.51"/><path d="M1011,453L891,440L903,567Z" fill="#ff5a74" stroke="#ff5a74" stroke-width="1.51"/><path d="M891,440L781,515L903,567Z" fill="#ff6272" stroke="#ff6272" stroke-width="1.51"/><path d="M798,672L699,654L799,751Z" fill="#d46071" stroke="#d46071" stroke-width="1.51"/><path d="M891,440L803,448L781,515Z" fill="#ff7170" stroke="#ff7170" stroke-width="1.51"/><path d="M1105,631L1155,523L995,573Z" fill="#de4376" stroke="#de4376" stroke-width="1.51"/><path d="M1251,661L1155,523L1105,631Z" fill="#c64075" stroke="#c64075" stroke-width="1.51"/><path d="M781,515L699,654L798,672Z" fill="#ea6571" stroke="#ea6571" stroke-width="1.51"/><path d="M660,566L699,654L781,515Z" fill="#f56e6f" stroke="#f56e6f" stroke-width="1.51"/><path d="M889,803L1013,891L1042,768Z" fill="#ac3c74" stroke="#ac3c74" stroke-width="1.51"/><path d="M767,875L899,873L889,803Z" fill="#a74b72" stroke="#a74b72" stroke-width="1.51"/><path d="M767,875L889,803L799,751Z" fill="#b35271" stroke="#b35271" stroke-width="1.51"/><path d="M1042,768L1166,790L1105,631Z" fill="#af3d74" stroke="#af3d74" stroke-width="1.51"/><path d="M899,873L1013,891L889,803Z" fill="#a53f73" stroke="#a53f73" stroke-width="1.51"/><path d="M1165,862L1166,790L1042,768Z" fill="#953973" stroke="#953973" stroke-width="1.51"/><path d="M688,420L660,566L781,515Z" fill="#ff7a6d" stroke="#ff7a6d" stroke-width="1.51"/><path d="M1155,523L1131,400L1011,453Z" fill="#e65972" stroke="#e65972" stroke-width="1.51"/><path d="M1011,453L899,314L891,440Z" fill="#ff6f70" stroke="#ff6f70" stroke-width="1.51"/><path d="M891,440L803,339L803,448Z" fill="#ff7c6d" stroke="#ff7c6d" stroke-width="1.51"/><path d="M680,789L767,875L799,751Z" fill="#b45b70" stroke="#b45b70" stroke-width="1.51"/><path d="M901,994L1025,986L1013,891Z" fill="#903670" stroke="#903670" stroke-width="1.51"/><path d="M680,789L799,751L699,654Z" fill="#c9636f" stroke="#c9636f" stroke-width="1.51"/><path d="M1227,755L1251,661L1105,631Z" fill="#ac3c74" stroke="#ac3c74" stroke-width="1.51"/><path d="M1155,523L1242,449L1131,400Z" fill="#d75772" stroke="#d75772" stroke-width="1.51"/><path d="M1166,790L1227,755L1105,631Z" fill="#a53b74" stroke="#a53b74" stroke-width="1.51"/><path d="M1165,862L1227,755L1166,790Z" fill="#8b3873" stroke="#8b3873" stroke-width="1.51"/><path d="M570,790L680,789L699,654Z" fill="#c66c6e" stroke="#c66c6e" stroke-width="1.51"/><path d="M1020,307L899,314L1011,453Z" fill="#fd746e" stroke="#fd746e" stroke-width="1.51"/><path d="M803,448L688,420L781,515Z" fill="#ff7b6d" stroke="#ff7b6d" stroke-width="1.51"/><path d="M1013,891L1165,862L1042,768Z" fill="#953973" stroke="#953973" stroke-width="1.51"/><path d="M899,314L803,339L891,440Z" fill="#ff816c" stroke="#ff816c" stroke-width="1.51"/><path d="M1251,661L1258,547L1155,523Z" fill="#c43f75" stroke="#c43f75" stroke-width="1.51"/><path d="M1131,400L1020,307L1011,453Z" fill="#ee6b6f" stroke="#ee6b6f" stroke-width="1.51"/><path d="M803,339L688,420L803,448Z" fill="#ff876b" stroke="#ff876b" stroke-width="1.51"/><path d="M1131,400L1151,298L1020,307Z" fill="#e6746d" stroke="#e6746d" stroke-width="1.51"/><path d="M1258,547L1242,449L1155,523Z" fill="#cf4973" stroke="#cf4973" stroke-width="1.51"/><path d="M1013,891L1150,981L1165,862Z" fill="#7a3572" stroke="#7a3572" stroke-width="1.51"/><path d="M901,994L1013,891L899,873Z" fill="#953c72" stroke="#953c72" stroke-width="1.51"/><path d="M806,1019L901,994L899,873Z" fill="#93436f" stroke="#93436f" stroke-width="1.51"/><path d="M884,196L803,339L899,314Z" fill="#ff9267" stroke="#ff9267" stroke-width="1.51"/><path d="M1255,330L1151,298L1131,400Z" fill="#d76f6e" stroke="#d76f6e" stroke-width="1.51"/><path d="M688,420L571,508L660,566Z" fill="#ff846b" stroke="#ff846b" stroke-width="1.51"/><path d="M536,656L570,790L699,654Z" fill="#d3756d" stroke="#d3756d" stroke-width="1.51"/><path d="M680,789L648,891L767,875Z" fill="#a75e6e" stroke="#a75e6e" stroke-width="1.51"/><path d="M767,875L806,1019L899,873Z" fill="#954a70" stroke="#954a70" stroke-width="1.51"/><path d="M570,790L648,891L680,789Z" fill="#af686d" stroke="#af686d" stroke-width="1.51"/><path d="M1025,986L1150,981L1013,891Z" fill="#813470" stroke="#813470" stroke-width="1.51"/><path d="M1165,862L1254,918L1227,755Z" fill="#793572" stroke="#793572" stroke-width="1.51"/><path d="M1156,1117L1150,981L1025,986Z" fill="#762f6b" stroke="#762f6b" stroke-width="1.51"/><path d="M803,339L696,306L688,420Z" fill="#ff9567" stroke="#ff9567" stroke-width="1.51"/><path d="M688,420L552,397L571,508Z" fill="#ff9467" stroke="#ff9467" stroke-width="1.51"/><path d="M764,217L696,306L803,339Z" fill="#ff9e64" stroke="#ff9e64" stroke-width="1.51"/><path d="M1001,197L899,314L1020,307Z" fill="#ff876a" stroke="#ff876a" stroke-width="1.51"/><path d="M536,656L699,654L660,566Z" fill="#e8766d" stroke="#e8766d" stroke-width="1.51"/><path d="M571,508L536,656L660,566Z" fill="#f67f6c" stroke="#f67f6c" stroke-width="1.51"/><path d="M901,994L894,1102L1025,986Z" fill="#91366c" stroke="#91366c" stroke-width="1.51"/><path d="M677,985L806,1019L767,875Z" fill="#94516d" stroke="#94516d" stroke-width="1.51"/><path d="M1251,661L1363,639L1258,547Z" fill="#ad3c74" stroke="#ad3c74" stroke-width="1.51"/><path d="M1258,547L1341,402L1242,449Z" fill="#c45172" stroke="#c45172" stroke-width="1.51"/><path d="M1242,449L1255,330L1131,400Z" fill="#d16370" stroke="#d16370" stroke-width="1.51"/><path d="M1383,798L1363,639L1251,661Z" fill="#8d3873" stroke="#8d3873" stroke-width="1.51"/><path d="M1383,798L1251,661L1227,755Z" fill="#8b3873" stroke="#8b3873" stroke-width="1.51"/><path d="M1150,981L1254,918L1165,862Z" fill="#693371" stroke="#693371" stroke-width="1.51"/><path d="M1341,402L1255,330L1242,449Z" fill="#c46070" stroke="#c46070" stroke-width="1.51"/><path d="M1151,298L1105,227L1020,307Z" fill="#e8806b" stroke="#e8806b" stroke-width="1.51"/><path d="M1252,163L1105,227L1151,298Z" fill="#db8569" stroke="#db8569" stroke-width="1.51"/><path d="M1105,227L1001,197L1020,307Z" fill="#f28969" stroke="#f28969" stroke-width="1.51"/><path d="M1001,197L884,196L899,314Z" fill="#ff9367" stroke="#ff9367" stroke-width="1.51"/><path d="M1363,639L1385,570L1258,547Z" fill="#ad3c74" stroke="#ad3c74" stroke-width="1.51"/><path d="M648,891L677,985L767,875Z" fill="#955a6e" stroke="#955a6e" stroke-width="1.51"/><path d="M589,988L677,985L648,891Z" fill="#945f6a" stroke="#945f6a" stroke-width="1.51"/><path d="M884,196L764,217L803,339Z" fill="#ff9d64" stroke="#ff9d64" stroke-width="1.51"/><path d="M1254,918L1335,864L1227,755Z" fill="#6e3472" stroke="#6e3472" stroke-width="1.51"/><path d="M1474,629L1448,514L1385,570Z" fill="#9f3a74" stroke="#9f3a74" stroke-width="1.51"/><path d="M1385,570L1341,402L1258,547Z" fill="#bb4773" stroke="#bb4773" stroke-width="1.51"/><path d="M571,508L456,542L536,656Z" fill="#f9896a" stroke="#f9896a" stroke-width="1.51"/><path d="M696,306L552,397L688,420Z" fill="#ff9c65" stroke="#ff9c65" stroke-width="1.51"/><path d="M526,292L552,397L696,306Z" fill="#ffaa60" stroke="#ffaa60" stroke-width="1.51"/><path d="M1335,864L1383,798L1227,755Z" fill="#723472" stroke="#723472" stroke-width="1.51"/><path d="M806,1019L894,1102L901,994Z" fill="#913f6a" stroke="#913f6a" stroke-width="1.51"/><path d="M791,1129L894,1102L806,1019Z" fill="#8f4267" stroke="#8f4267" stroke-width="1.51"/><path d="M1335,864L1491,891L1383,798Z" fill="#522f71" stroke="#522f71" stroke-width="1.51"/><path d="M1254,918L1368,974L1335,864Z" fill="#4e2f70" stroke="#4e2f70" stroke-width="1.51"/><path d="M1150,981L1274,989L1254,918Z" fill="#612f6e" stroke="#612f6e" stroke-width="1.51"/><path d="M1244,1126L1274,989L1150,981Z" fill="#602c6a" stroke="#602c6a" stroke-width="1.51"/><path d="M570,790L533,892L648,891Z" fill="#a66b6c" stroke="#a66b6c" stroke-width="1.51"/><path d="M437,864L533,892L570,790Z" fill="#a9746a" stroke="#a9746a" stroke-width="1.51"/><path d="M466,447L456,542L571,508Z" fill="#ff9566" stroke="#ff9566" stroke-width="1.51"/><path d="M536,656L420,797L570,790Z" fill="#c67c6a" stroke="#c67c6a" stroke-width="1.51"/><path d="M669,1135L791,1129L806,1019Z" fill="#8f4b65" stroke="#8f4b65" stroke-width="1.51"/><path d="M533,892L589,988L648,891Z" fill="#95656b" stroke="#95656b" stroke-width="1.51"/><path d="M552,397L466,447L571,508Z" fill="#ff9b65" stroke="#ff9b65" stroke-width="1.51"/><path d="M434,342L466,447L552,397Z" fill="#ffab5f" stroke="#ffab5f" stroke-width="1.51"/><path d="M1385,570L1448,514L1341,402Z" fill="#b04773" stroke="#b04773" stroke-width="1.51"/><path d="M1474,629L1385,570L1363,639Z" fill="#983973" stroke="#983973" stroke-width="1.51"/><path d="M669,1135L806,1019L677,985Z" fill="#915167" stroke="#915167" stroke-width="1.51"/><path d="M1032,1216L1040,1147L929,1241Z" fill="#842863" stroke="#842863" stroke-width="1.51"/><path d="M894,1102L1040,1147L1025,986Z" fill="#8b2f6a" stroke="#8b2f6a" stroke-width="1.51"/><path d="M764,217L695,165L696,306Z" fill="#ffad5f" stroke="#ffad5f" stroke-width="1.51"/><path d="M782,58L695,165L764,217Z" fill="#ffb65d" stroke="#ffb65d" stroke-width="1.51"/><path d="M873,88L764,217L884,196Z" fill="#ffaa60" stroke="#ffaa60" stroke-width="1.51"/><path d="M1502,739L1474,629L1363,639Z" fill="#813672" stroke="#813672" stroke-width="1.51"/><path d="M1040,1147L1156,1117L1025,986Z" fill="#7b2d69" stroke="#7b2d69" stroke-width="1.51"/><path d="M456,542L412,627L536,656Z" fill="#ee8c68" stroke="#ee8c68" stroke-width="1.51"/><path d="M312,540L412,627L456,542Z" fill="#fa9865" stroke="#fa9865" stroke-width="1.51"/><path d="M530,224L526,292L696,306Z" fill="#ffb55c" stroke="#ffb55c" stroke-width="1.51"/><path d="M1341,402L1369,289L1255,330Z" fill="#bd696e" stroke="#bd696e" stroke-width="1.51"/><path d="M1255,330L1252,163L1151,298Z" fill="#d17c6a" stroke="#d17c6a" stroke-width="1.51"/><path d="M1028,77L873,88L1001,197Z" fill="#ff9d68" stroke="#ff9d68" stroke-width="1.51"/><path d="M1462,406L1369,289L1341,402Z" fill="#b0616f" stroke="#b0616f" stroke-width="1.51"/><path d="M1274,989L1368,974L1254,918Z" fill="#522d6e" stroke="#522d6e" stroke-width="1.51"/><path d="M1383,798L1502,739L1363,639Z" fill="#763472" stroke="#763472" stroke-width="1.51"/><path d="M1347,1148L1368,974L1274,989Z" fill="#4a2969" stroke="#4a2969" stroke-width="1.51"/><path d="M1001,197L873,88L884,196Z" fill="#ffa163" stroke="#ffa163" stroke-width="1.51"/><path d="M1028,77L1001,197L1105,227Z" fill="#f29865" stroke="#f29865" stroke-width="1.51"/><path d="M462,1032L549,1088L589,988Z" fill="#926663" stroke="#926663" stroke-width="1.51"/><path d="M412,627L420,797L536,656Z" fill="#d68768" stroke="#d68768" stroke-width="1.51"/><path d="M1369,289L1252,163L1255,330Z" fill="#c4796a" stroke="#c4796a" stroke-width="1.51"/><path d="M1166,63L1028,77L1105,227Z" fill="#e89569" stroke="#e89569" stroke-width="1.51"/><path d="M420,797L437,864L570,790Z" fill="#b27a69" stroke="#b27a69" stroke-width="1.51"/><path d="M1448,514L1462,406L1341,402Z" fill="#ab5271" stroke="#ab5271" stroke-width="1.51"/><path d="M1576,442L1462,406L1448,514Z" fill="#9c4c71" stroke="#9c4c71" stroke-width="1.51"/><path d="M1491,891L1502,739L1383,798Z" fill="#533071" stroke="#533071" stroke-width="1.51"/><path d="M1576,442L1480,334L1462,406Z" fill="#9b576f" stroke="#9b576f" stroke-width="1.51"/><path d="M589,988L669,1135L677,985Z" fill="#915a66" stroke="#915a66" stroke-width="1.51"/><path d="M929,1241L1040,1147L894,1102Z" fill="#8d2c65" stroke="#8d2c65" stroke-width="1.51"/><path d="M549,1088L669,1135L589,988Z" fill="#915d64" stroke="#915d64" stroke-width="1.51"/><path d="M1156,1117L1244,1126L1150,981Z" fill="#662b68" stroke="#662b68" stroke-width="1.51"/><path d="M1165,1217L1244,1126L1156,1117Z" fill="#632764" stroke="#632764" stroke-width="1.51"/><path d="M695,165L530,224L696,306Z" fill="#ffb65b" stroke="#ffb65b" stroke-width="1.51"/><path d="M526,292L434,342L552,397Z" fill="#ffb25d" stroke="#ffb25d" stroke-width="1.51"/><path d="M466,447L330,455L456,542Z" fill="#ffa362" stroke="#ffa362" stroke-width="1.51"/><path d="M644,55L530,224L695,165Z" fill="#ffc457" stroke="#ffc457" stroke-width="1.51"/><path d="M530,224L434,342L526,292Z" fill="#ffbe58" stroke="#ffbe58" stroke-width="1.51"/><path d="M1040,1147L1165,1217L1156,1117Z" fill="#702864" stroke="#702864" stroke-width="1.51"/><path d="M793,1212L894,1102L791,1129Z" fill="#8d3f64" stroke="#8d3f64" stroke-width="1.51"/><path d="M873,88L782,58L764,217Z" fill="#ffb063" stroke="#ffb063" stroke-width="1.51"/><path d="M819,-24L782,58L873,88Z" fill="#ffaf6b" stroke="#ffaf6b" stroke-width="1.51"/><path d="M696,1231L793,1212L791,1129Z" fill="#8c4660" stroke="#8c4660" stroke-width="1.51"/><path d="M1490,1009L1491,891L1368,974Z" fill="#2d286d" stroke="#2d286d" stroke-width="1.51"/><path d="M1368,974L1491,891L1335,864Z" fill="#3e2c70" stroke="#3e2c70" stroke-width="1.51"/><path d="M669,1135L696,1231L791,1129Z" fill="#8d4c60" stroke="#8d4c60" stroke-width="1.51"/><path d="M462,1032L589,988L533,892Z" fill="#946a67" stroke="#946a67" stroke-width="1.51"/><path d="M1252,163L1166,63L1105,227Z" fill="#da9167" stroke="#da9167" stroke-width="1.51"/><path d="M1028,77L873,-20L873,88Z" fill="#ffa36d" stroke="#ffa36d" stroke-width="1.51"/><path d="M1254,101L1166,63L1252,163Z" fill="#d18f6b" stroke="#d18f6b" stroke-width="1.51"/><path d="M1369,289L1369,189L1252,163Z" fill="#bd7f69" stroke="#bd7f69" stroke-width="1.51"/><path d="M1462,406L1480,334L1369,289Z" fill="#a8636d" stroke="#a8636d" stroke-width="1.51"/><path d="M1588,537L1448,514L1474,629Z" fill="#963973" stroke="#963973" stroke-width="1.51"/><path d="M1455,171L1369,189L1369,289Z" fill="#b07b69" stroke="#b07b69" stroke-width="1.51"/><path d="M1353,97L1254,101L1252,163Z" fill="#c58b6a" stroke="#c58b6a" stroke-width="1.51"/><path d="M793,1212L929,1241L894,1102Z" fill="#8c3762" stroke="#8c3762" stroke-width="1.51"/><path d="M412,627L337,769L420,797Z" fill="#cb8c66" stroke="#cb8c66" stroke-width="1.51"/><path d="M420,797L319,888L437,864Z" fill="#a98167" stroke="#a98167" stroke-width="1.51"/><path d="M437,864L462,1032L533,892Z" fill="#967168" stroke="#967168" stroke-width="1.51"/><path d="M298,666L337,769L412,627Z" fill="#d89068" stroke="#d89068" stroke-width="1.51"/><path d="M1244,1126L1347,1148L1274,989Z" fill="#512867" stroke="#512867" stroke-width="1.51"/><path d="M1032,1216L1165,1217L1040,1147Z" fill="#762762" stroke="#762762" stroke-width="1.51"/><path d="M1268,1258L1165,1217L1032,1216Z" fill="#672460" stroke="#672460" stroke-width="1.51"/><path d="M355,991L462,1032L437,864Z" fill="#957665" stroke="#957665" stroke-width="1.51"/><path d="M1502,739L1586,678L1474,629Z" fill="#6f3371" stroke="#6f3371" stroke-width="1.51"/><path d="M1491,891L1563,764L1502,739Z" fill="#4a2e70" stroke="#4a2e70" stroke-width="1.51"/><path d="M434,342L330,455L466,447Z" fill="#ffb05e" stroke="#ffb05e" stroke-width="1.51"/><path d="M345,313L330,455L434,342Z" fill="#ffbb5a" stroke="#ffbb5a" stroke-width="1.51"/><path d="M330,455L312,540L456,542Z" fill="#ffa164" stroke="#ffa164" stroke-width="1.51"/><path d="M1563,764L1586,678L1502,739Z" fill="#5d3070" stroke="#5d3070" stroke-width="1.51"/><path d="M312,540L298,666L412,627Z" fill="#ee9767" stroke="#ee9767" stroke-width="1.51"/><path d="M530,224L455,162L434,342Z" fill="#ffc854" stroke="#ffc854" stroke-width="1.51"/><path d="M782,58L644,55L695,165Z" fill="#ffbc61" stroke="#ffbc61" stroke-width="1.51"/><path d="M663,-18L644,55L782,58Z" fill="#ffbe66" stroke="#ffbe66" stroke-width="1.51"/><path d="M1586,678L1588,537L1474,629Z" fill="#7f3572" stroke="#7f3572" stroke-width="1.51"/><path d="M793,1212L696,1231L929,1241Z" fill="#8b3e5f" stroke="#8b3e5f" stroke-width="1.51"/><path d="M545,1254L696,1231L669,1135Z" fill="#8c545c" stroke="#8c545c" stroke-width="1.51"/><path d="M545,1254L669,1135L549,1088Z" fill="#8e5a5e" stroke="#8e5a5e" stroke-width="1.51"/><path d="M990,-53L873,-20L1028,77Z" fill="#ff9f73" stroke="#ff9f73" stroke-width="1.51"/><path d="M1338,1219L1347,1148L1244,1126Z" fill="#4b2462" stroke="#4b2462" stroke-width="1.51"/><path d="M1491,891L1615,903L1563,764Z" fill="#302b6e" stroke="#302b6e" stroke-width="1.51"/><path d="M1588,537L1576,442L1448,514Z" fill="#954272" stroke="#954272" stroke-width="1.51"/><path d="M1455,171L1353,97L1369,189Z" fill="#b18568" stroke="#b18568" stroke-width="1.51"/><path d="M1470,1090L1490,1009L1368,974Z" fill="#2f2669" stroke="#2f2669" stroke-width="1.51"/><path d="M873,-20L819,-24L873,88Z" fill="#ffac6e" stroke="#ffac6e" stroke-width="1.51"/><path d="M1369,189L1353,97L1252,163Z" fill="#be8968" stroke="#be8968" stroke-width="1.51"/><path d="M1254,101L1215,-5L1166,63Z" fill="#d39070" stroke="#d39070" stroke-width="1.51"/><path d="M1155,-66L990,-53L1028,77Z" fill="#f19a75" stroke="#f19a75" stroke-width="1.51"/><path d="M1455,171L1369,289L1480,334Z" fill="#a9716a" stroke="#a9716a" stroke-width="1.51"/><path d="M547,48L455,162L530,224Z" fill="#fed151" stroke="#fed151" stroke-width="1.51"/><path d="M217,784L319,888L337,769Z" fill="#b3856c" stroke="#b3856c" stroke-width="1.51"/><path d="M337,769L319,888L420,797Z" fill="#b28568" stroke="#b28568" stroke-width="1.51"/><path d="M455,162L345,313L434,342Z" fill="#ffca53" stroke="#ffca53" stroke-width="1.51"/><path d="M227,515L241,630L312,540Z" fill="#fd9c6c" stroke="#fd9c6c" stroke-width="1.51"/><path d="M355,991L448,1096L462,1032Z" fill="#927260" stroke="#927260" stroke-width="1.51"/><path d="M462,1032L448,1096L549,1088Z" fill="#916a60" stroke="#916a60" stroke-width="1.51"/><path d="M1155,-66L1028,77L1166,63Z" fill="#e69672" stroke="#e69672" stroke-width="1.51"/><path d="M873,-20L888,-128L819,-24Z" fill="#ffad75" stroke="#ffad75" stroke-width="1.51"/><path d="M1562,219L1455,171L1480,334Z" fill="#9d726a" stroke="#9d726a" stroke-width="1.51"/><path d="M1155,-66L1215,-5L1276,-169Z" fill="#d3937b" stroke="#d3937b" stroke-width="1.51"/><path d="M1353,97L1215,-5L1254,101Z" fill="#c78d6f" stroke="#c78d6f" stroke-width="1.51"/><path d="M319,888L355,991L437,864Z" fill="#967c67" stroke="#967c67" stroke-width="1.51"/><path d="M1347,1148L1470,1090L1368,974Z" fill="#3a2666" stroke="#3a2666" stroke-width="1.51"/><path d="M1490,1009L1615,903L1491,891Z" fill="#08276d" stroke="#08276d" stroke-width="1.51"/><path d="M298,666L217,784L337,769Z" fill="#c98d6c" stroke="#c98d6c" stroke-width="1.51"/><path d="M312,540L241,630L298,666Z" fill="#ee976b" stroke="#ee976b" stroke-width="1.51"/><path d="M227,515L312,540L330,455Z" fill="#ffa468" stroke="#ffa468" stroke-width="1.51"/><path d="M663,-18L547,48L644,55Z" fill="#ffc763" stroke="#ffc763" stroke-width="1.51"/><path d="M644,55L547,48L530,224Z" fill="#ffcb59" stroke="#ffcb59" stroke-width="1.51"/><path d="M690,-119L663,-18L819,-24Z" fill="#ffbd70" stroke="#ffbd70" stroke-width="1.51"/><path d="M819,-24L663,-18L782,58Z" fill="#ffb86b" stroke="#ffb86b" stroke-width="1.51"/><path d="M1165,1217L1268,1258L1244,1126Z" fill="#5b2461" stroke="#5b2461" stroke-width="1.51"/><path d="M1347,1148L1494,1254L1470,1090Z" fill="#2e2061" stroke="#2e2061" stroke-width="1.51"/><path d="M929,1241L1268,1258L1032,1216Z" fill="#752560" stroke="#752560" stroke-width="1.51"/><path d="M545,1254L1268,1258L929,1241Z" fill="#8a2e60" stroke="#8a2e60" stroke-width="1.51"/><path d="M1268,1258L1338,1219L1244,1126Z" fill="#502260" stroke="#502260" stroke-width="1.51"/><path d="M547,48L441,110L455,162Z" fill="#ffd554" stroke="#ffd554" stroke-width="1.51"/><path d="M455,162L309,227L345,313Z" fill="#fed34e" stroke="#fed34e" stroke-width="1.51"/><path d="M1740,758L1681,622L1586,678Z" fill="#682e6c" stroke="#682e6c" stroke-width="1.51"/><path d="M1586,678L1681,622L1588,537Z" fill="#7f336f" stroke="#7f336f" stroke-width="1.51"/><path d="M1604,1014L1615,903L1490,1009Z" fill="#062469" stroke="#062469" stroke-width="1.51"/><path d="M1215,-5L1155,-66L1166,63Z" fill="#da9474" stroke="#da9474" stroke-width="1.51"/><path d="M1373,-49L1215,-5L1353,97Z" fill="#c08b73" stroke="#c08b73" stroke-width="1.51"/><path d="M1576,442L1606,328L1480,334Z" fill="#955a6d" stroke="#955a6d" stroke-width="1.51"/><path d="M1732,435L1606,328L1576,442Z" fill="#93516c" stroke="#93516c" stroke-width="1.51"/><path d="M1732,435L1576,442L1588,537Z" fill="#93446d" stroke="#93446d" stroke-width="1.51"/><path d="M237,440L227,515L330,455Z" fill="#ffab67" stroke="#ffab67" stroke-width="1.51"/><path d="M237,440L330,455L345,313Z" fill="#ffb661" stroke="#ffb661" stroke-width="1.51"/><path d="M190,328L237,440L345,313Z" fill="#ffbe61" stroke="#ffbe61" stroke-width="1.51"/><path d="M1740,758L1586,678L1563,764Z" fill="#5a2e6d" stroke="#5a2e6d" stroke-width="1.51"/><path d="M1455,171L1466,50L1353,97Z" fill="#ab836b" stroke="#ab836b" stroke-width="1.51"/><path d="M1606,328L1562,219L1480,334Z" fill="#95666b" stroke="#95666b" stroke-width="1.51"/><path d="M448,1096L545,1254L549,1088Z" fill="#8f635d" stroke="#8f635d" stroke-width="1.51"/><path d="M696,1231L545,1254L929,1241Z" fill="#8a485c" stroke="#8a485c" stroke-width="1.51"/><path d="M422,1241L545,1254L448,1096Z" fill="#8e6559" stroke="#8e6559" stroke-width="1.51"/><path d="M241,630L217,784L298,666Z" fill="#d6916d" stroke="#d6916d" stroke-width="1.51"/><path d="M319,888L218,1006L355,991Z" fill="#947a69" stroke="#947a69" stroke-width="1.51"/><path d="M91,765L217,784L241,630Z" fill="#cc8f71" stroke="#cc8f71" stroke-width="1.51"/><path d="M351,103L309,227L455,162Z" fill="#fddf47" stroke="#fddf47" stroke-width="1.51"/><path d="M990,-53L888,-128L873,-20Z" fill="#ffa678" stroke="#ffa678" stroke-width="1.51"/><path d="M1001,-180L888,-128L990,-53Z" fill="#ffa27e" stroke="#ffa27e" stroke-width="1.51"/><path d="M1609,1102L1604,1014L1490,1009Z" fill="#062266" stroke="#062266" stroke-width="1.51"/><path d="M1842,537L1723,550L1857,621Z" fill="#872e69" stroke="#872e69" stroke-width="1.51"/><path d="M1609,1102L1490,1009L1470,1090Z" fill="#102265" stroke="#102265" stroke-width="1.51"/><path d="M1588,90L1466,50L1455,171Z" fill="#9c7f6c" stroke="#9c7f6c" stroke-width="1.51"/><path d="M1681,622L1723,550L1588,537Z" fill="#8a336e" stroke="#8a336e" stroke-width="1.51"/><path d="M1682,201L1588,90L1562,219Z" fill="#947964" stroke="#947964" stroke-width="1.51"/><path d="M1740,758L1563,764L1615,903Z" fill="#412a6c" stroke="#412a6c" stroke-width="1.51"/><path d="M441,110L351,103L455,162Z" fill="#fedd4d" stroke="#fedd4d" stroke-width="1.51"/><path d="M547,48L457,-28L441,110Z" fill="#ffd75a" stroke="#ffd75a" stroke-width="1.51"/><path d="M663,-18L539,-41L547,48Z" fill="#ffcc64" stroke="#ffcc64" stroke-width="1.51"/><path d="M690,-119L539,-41L663,-18Z" fill="#ffc76c" stroke="#ffc76c" stroke-width="1.51"/><path d="M770,-182L690,-119L819,-24Z" fill="#ffba76" stroke="#ffba76" stroke-width="1.51"/><path d="M1604,1014L1682,916L1615,903Z" fill="#062469" stroke="#062469" stroke-width="1.51"/><path d="M457,-28L351,103L441,110Z" fill="#fedd55" stroke="#fedd55" stroke-width="1.51"/><path d="M1150,-158L1001,-180L990,-53Z" fill="#f39d7f" stroke="#f39d7f" stroke-width="1.51"/><path d="M1466,50L1373,-49L1353,97Z" fill="#b08772" stroke="#b08772" stroke-width="1.51"/><path d="M343,1229L422,1241L448,1096Z" fill="#8e6d58" stroke="#8e6d58" stroke-width="1.51"/><path d="M217,784L194,915L319,888Z" fill="#a5826f" stroke="#a5826f" stroke-width="1.51"/><path d="M91,765L194,915L217,784Z" fill="#b18772" stroke="#b18772" stroke-width="1.51"/><path d="M305,1125L448,1096L355,991Z" fill="#91745e" stroke="#91745e" stroke-width="1.51"/><path d="M1682,916L1740,758L1615,903Z" fill="#2c276a" stroke="#2c276a" stroke-width="1.51"/><path d="M218,1006L305,1125L355,991Z" fill="#927764" stroke="#927764" stroke-width="1.51"/><path d="M1723,550L1732,435L1588,537Z" fill="#923b6c" stroke="#923b6c" stroke-width="1.51"/><path d="M1562,219L1588,90L1455,171Z" fill="#967c67" stroke="#967c67" stroke-width="1.51"/><path d="M1828,449L1732,435L1723,550Z" fill="#903e69" stroke="#903e69" stroke-width="1.51"/><path d="M1150,-158L990,-53L1155,-66Z" fill="#e9997c" stroke="#e9997c" stroke-width="1.51"/><path d="M888,-128L770,-182L819,-24Z" fill="#ffb279" stroke="#ffb279" stroke-width="1.51"/><path d="M215,213L190,328L309,227Z" fill="#ffd25a" stroke="#ffd25a" stroke-width="1.51"/><path d="M309,227L190,328L345,313Z" fill="#ffcb59" stroke="#ffcb59" stroke-width="1.51"/><path d="M237,440L126,529L227,515Z" fill="#ffa76d" stroke="#ffa76d" stroke-width="1.51"/><path d="M227,515L126,529L241,630Z" fill="#fe9d6f" stroke="#fe9d6f" stroke-width="1.51"/><path d="M1276,-169L1150,-158L1155,-66Z" fill="#d79580" stroke="#d79580" stroke-width="1.51"/><path d="M1604,1014L1690,1000L1682,916Z" fill="#062266" stroke="#062266" stroke-width="1.51"/><path d="M1571,1204L1609,1102L1470,1090Z" fill="#061f61" stroke="#061f61" stroke-width="1.51"/><path d="M1494,1254L1347,1148L1338,1219Z" fill="#38205f" stroke="#38205f" stroke-width="1.51"/><path d="M539,-41L457,-28L547,48Z" fill="#ffd461" stroke="#ffd461" stroke-width="1.51"/><path d="M529,-161L457,-28L539,-41Z" fill="#ffd669" stroke="#ffd669" stroke-width="1.51"/><path d="M194,915L218,1006L319,888Z" fill="#957d6d" stroke="#957d6d" stroke-width="1.51"/><path d="M95,433L126,529L237,440Z" fill="#ffad6e" stroke="#ffad6e" stroke-width="1.51"/><path d="M690,-119L529,-161L539,-41Z" fill="#ffce6f" stroke="#ffce6f" stroke-width="1.51"/><path d="M1001,-180L770,-182L888,-128Z" fill="#ffab7f" stroke="#ffab7f" stroke-width="1.51"/><path d="M1268,1258L1494,1254L1338,1219Z" fill="#3d1f5d" stroke="#3d1f5d" stroke-width="1.51"/><path d="M1698,1093L1604,1014L1609,1102Z" fill="#071f62" stroke="#071f62" stroke-width="1.51"/><path d="M1698,1093L1690,1000L1604,1014Z" fill="#071f62" stroke="#071f62" stroke-width="1.51"/><path d="M1682,916L1822,792L1740,758Z" fill="#3b2768" stroke="#3b2768" stroke-width="1.51"/><path d="M1466,50L1497,-26L1373,-49Z" fill="#a78575" stroke="#a78575" stroke-width="1.51"/><path d="M1682,201L1562,219L1606,328Z" fill="#946c67" stroke="#946c67" stroke-width="1.51"/><path d="M1732,435L1727,322L1606,328Z" fill="#925768" stroke="#925768" stroke-width="1.51"/><path d="M190,328L95,433L237,440Z" fill="#ffb869" stroke="#ffb869" stroke-width="1.51"/><path d="M225,102L215,213L309,227Z" fill="#fede52" stroke="#fede52" stroke-width="1.51"/><path d="M225,102L309,227L351,103Z" fill="#fee050" stroke="#fee050" stroke-width="1.51"/><path d="M1494,1254L1571,1204L1470,1090Z" fill="#151e5f" stroke="#151e5f" stroke-width="1.51"/><path d="M181,1242L343,1229L305,1125Z" fill="#8d705d" stroke="#8d705d" stroke-width="1.51"/><path d="M305,1125L343,1229L448,1096Z" fill="#8f715a" stroke="#8f715a" stroke-width="1.51"/><path d="M1727,322L1682,201L1606,328Z" fill="#936566" stroke="#936566" stroke-width="1.51"/><path d="M1480,-120L1497,-26L1580,-53Z" fill="#97817a" stroke="#97817a" stroke-width="1.51"/><path d="M1588,90L1497,-26L1466,50Z" fill="#987f71" stroke="#987f71" stroke-width="1.51"/><path d="M1373,-49L1276,-169L1215,-5Z" fill="#c58f7b" stroke="#c58f7b" stroke-width="1.51"/><path d="M1396,-186L1276,-169L1373,-49Z" fill="#b98c80" stroke="#b98c80" stroke-width="1.51"/><path d="M1150,-158L1276,-169L1001,-180Z" fill="#e19982" stroke="#e19982" stroke-width="1.51"/><path d="M80,642L91,765L241,630Z" fill="#db9373" stroke="#db9373" stroke-width="1.51"/><path d="M194,915L111,985L218,1006Z" fill="#947c6f" stroke="#947c6f" stroke-width="1.51"/><path d="M-29,664L80,642L-50,528Z" fill="#ee9b7b" stroke="#ee9b7b" stroke-width="1.51"/><path d="M126,529L80,642L241,630Z" fill="#f29a72" stroke="#f29a72" stroke-width="1.51"/><path d="M78,278L95,433L190,328Z" fill="#ffc369" stroke="#ffc369" stroke-width="1.51"/><path d="M1703,1210L1698,1093L1609,1102Z" fill="#071b5c" stroke="#071b5c" stroke-width="1.51"/><path d="M1855,881L1822,792L1682,916Z" fill="#2a2466" stroke="#2a2466" stroke-width="1.51"/><path d="M1855,881L1682,916L1690,1000Z" fill="#062265" stroke="#062265" stroke-width="1.51"/><path d="M1857,621L1723,550L1681,622Z" fill="#802f6a" stroke="#802f6a" stroke-width="1.51"/><path d="M1732,435L1797,306L1727,322Z" fill="#915665" stroke="#915665" stroke-width="1.51"/><path d="M215,213L78,278L190,328Z" fill="#ffcf60" stroke="#ffcf60" stroke-width="1.51"/><path d="M315,-18L225,102L351,103Z" fill="#fee259" stroke="#fee259" stroke-width="1.51"/><path d="M457,-28L315,-18L351,103Z" fill="#fee259" stroke="#fee259" stroke-width="1.51"/><path d="M770,-182L529,-161L690,-119Z" fill="#ffc677" stroke="#ffc677" stroke-width="1.51"/><path d="M218,1006L197,1134L305,1125Z" fill="#907665" stroke="#907665" stroke-width="1.51"/><path d="M91,765L92,915L194,915Z" fill="#a48474" stroke="#a48474" stroke-width="1.51"/><path d="M14,788L92,915L91,765Z" fill="#b08878" stroke="#b08878" stroke-width="1.51"/><path d="M1727,322L1796,213L1682,201Z" fill="#926962" stroke="#926962" stroke-width="1.51"/><path d="M1842,537L1828,449L1723,550Z" fill="#8f3669" stroke="#8f3669" stroke-width="1.51"/><path d="M1857,621L1681,622L1740,758Z" fill="#6c2c69" stroke="#6c2c69" stroke-width="1.51"/><path d="M111,985L197,1134L218,1006Z" fill="#91786b" stroke="#91786b" stroke-width="1.51"/><path d="M333,-172L315,-18L457,-28Z" fill="#fee363" stroke="#fee363" stroke-width="1.51"/><path d="M92,915L111,985L194,915Z" fill="#947e73" stroke="#947e73" stroke-width="1.51"/><path d="M1828,449L1797,306L1732,435Z" fill="#904e66" stroke="#904e66" stroke-width="1.51"/><path d="M1580,-53L1497,-26L1588,90Z" fill="#957e74" stroke="#957e74" stroke-width="1.51"/><path d="M1842,537L1914,513L1828,449Z" fill="#8e3766" stroke="#8e3766" stroke-width="1.51"/><path d="M1822,792L1857,621L1740,758Z" fill="#5a2967" stroke="#5a2967" stroke-width="1.51"/><path d="M1497,-26L1480,-120L1373,-49Z" fill="#a5857a" stroke="#a5857a" stroke-width="1.51"/><path d="M1580,-53L1588,90L1685,58Z" fill="#937c6f" stroke="#937c6f" stroke-width="1.51"/><path d="M1276,-169L1396,-186L1001,-180Z" fill="#d19483" stroke="#d19483" stroke-width="1.51"/><path d="M1001,-180L1396,-186L770,-182Z" fill="#f29e84" stroke="#f29e84" stroke-width="1.51"/><path d="M1480,-120L1396,-186L1373,-49Z" fill="#ac887e" stroke="#ac887e" stroke-width="1.51"/><path d="M1480,-120L1625,-118L1396,-186Z" fill="#9b8480" stroke="#9b8480" stroke-width="1.51"/><path d="M1685,58L1588,90L1682,201Z" fill="#947967" stroke="#947967" stroke-width="1.51"/><path d="M1797,85L1685,58L1682,201Z" fill="#927764" stroke="#927764" stroke-width="1.51"/><path d="M88,195L78,278L215,213Z" fill="#ffd860" stroke="#ffd860" stroke-width="1.51"/><path d="M-29,664L91,765L80,642Z" fill="#d79479" stroke="#d79479" stroke-width="1.51"/><path d="M88,195L215,213L225,102Z" fill="#fee057" stroke="#fee057" stroke-width="1.51"/><path d="M770,-182L443,-170L529,-161Z" fill="#ffcf75" stroke="#ffcf75" stroke-width="1.51"/><path d="M529,-161L443,-170L457,-28Z" fill="#ffda6b" stroke="#ffda6b" stroke-width="1.51"/><path d="M1934,781L1944,627L1857,621Z" fill="#672764" stroke="#672764" stroke-width="1.51"/><path d="M1847,1028L1855,881L1690,1000Z" fill="#061f61" stroke="#061f61" stroke-width="1.51"/><path d="M-29,664L14,788L91,765Z" fill="#c9907a" stroke="#c9907a" stroke-width="1.51"/><path d="M-29,986L77,1139L111,985Z" fill="#917a71" stroke="#917a71" stroke-width="1.51"/><path d="M80,642L126,529L-50,528Z" fill="#fc9e78" stroke="#fc9e78" stroke-width="1.51"/><path d="M1797,306L1796,213L1727,322Z" fill="#916262" stroke="#916262" stroke-width="1.51"/><path d="M1964,290L1796,213L1797,306Z" fill="#8f625f" stroke="#8f625f" stroke-width="1.51"/><path d="M1922,394L1797,306L1828,449Z" fill="#8e4e63" stroke="#8e4e63" stroke-width="1.51"/><path d="M1698,1093L1804,1094L1690,1000Z" fill="#071d5e" stroke="#071d5e" stroke-width="1.51"/><path d="M1571,1204L1703,1210L1609,1102Z" fill="#081b5c" stroke="#081b5c" stroke-width="1.51"/><path d="M1494,1254L1703,1210L1571,1204Z" fill="#081a5b" stroke="#081a5b" stroke-width="1.51"/><path d="M333,-172L245,-27L315,-18Z" fill="#ffe468" stroke="#ffe468" stroke-width="1.51"/><path d="M315,-18L245,-27L225,102Z" fill="#ffe361" stroke="#ffe361" stroke-width="1.51"/><path d="M-50,528L126,529L95,433Z" fill="#ffa875" stroke="#ffa875" stroke-width="1.51"/><path d="M100,50L88,195L225,102Z" fill="#ffe35e" stroke="#ffe35e" stroke-width="1.51"/><path d="M-15,425L95,433L-18,315Z" fill="#ffbc72" stroke="#ffbc72" stroke-width="1.51"/><path d="M1857,621L1914,513L1842,537Z" fill="#892d67" stroke="#892d67" stroke-width="1.51"/><path d="M1944,627L1914,513L1857,621Z" fill="#802a65" stroke="#802a65" stroke-width="1.51"/><path d="M1703,1210L1804,1094L1698,1093Z" fill="#071a5a" stroke="#071a5a" stroke-width="1.51"/><path d="M77,1139L197,1134L111,985Z" fill="#90776b" stroke="#90776b" stroke-width="1.51"/><path d="M77,1139L181,1242L197,1134Z" fill="#8d7264" stroke="#8d7264" stroke-width="1.51"/><path d="M197,1134L181,1242L305,1125Z" fill="#8e7261" stroke="#8e7261" stroke-width="1.51"/><path d="M343,1229L181,1242L422,1241Z" fill="#8c6e58" stroke="#8c6e58" stroke-width="1.51"/><path d="M422,1241L181,1242L545,1254Z" fill="#8c6c54" stroke="#8c6c54" stroke-width="1.51"/><path d="M-18,315L95,433L78,278Z" fill="#ffc56c" stroke="#ffc56c" stroke-width="1.51"/><path d="M1804,1094L1847,1028L1690,1000Z" fill="#071c5e" stroke="#071c5e" stroke-width="1.51"/><path d="M1934,781L1857,621L1822,792Z" fill="#572765" stroke="#572765" stroke-width="1.51"/><path d="M1934,781L1822,792L1855,881Z" fill="#3a2363" stroke="#3a2363" stroke-width="1.51"/><path d="M-15,425L-50,528L95,433Z" fill="#ffaf76" stroke="#ffaf76" stroke-width="1.51"/><path d="M1914,897L1934,781L1855,881Z" fill="#2d2162" stroke="#2d2162" stroke-width="1.51"/><path d="M1964,290L1922,394L2083,394Z" fill="#8c4e5d" stroke="#8c4e5d" stroke-width="1.51"/><path d="M1914,513L1922,394L1828,449Z" fill="#8e4064" stroke="#8e4064" stroke-width="1.51"/><path d="M1847,1028L1914,897L1855,881Z" fill="#061e61" stroke="#061e61" stroke-width="1.51"/><path d="M-45,872L92,915L14,788Z" fill="#a5857a" stroke="#a5857a" stroke-width="1.51"/><path d="M-29,986L111,985L92,915Z" fill="#937d76" stroke="#937d76" stroke-width="1.51"/><path d="M-34,161L78,278L88,195Z" fill="#ffdb63" stroke="#ffdb63" stroke-width="1.51"/><path d="M443,-170L333,-172L457,-28Z" fill="#ffe268" stroke="#ffe268" stroke-width="1.51"/><path d="M209,-181L333,-172L443,-170Z" fill="#ffe670" stroke="#ffe670" stroke-width="1.51"/><path d="M1732,-25L1625,-118L1580,-53Z" fill="#927d76" stroke="#927d76" stroke-width="1.51"/><path d="M1580,-53L1625,-118L1480,-120Z" fill="#93807b" stroke="#93807b" stroke-width="1.51"/><path d="M1732,-25L1580,-53L1685,58Z" fill="#927b70" stroke="#927b70" stroke-width="1.51"/><path d="M1797,85L1682,201L1796,213Z" fill="#92755f" stroke="#92755f" stroke-width="1.51"/><path d="M1935,171L1797,85L1796,213Z" fill="#90735c" stroke="#90735c" stroke-width="1.51"/><path d="M-34,161L-18,315L78,278Z" fill="#ffd569" stroke="#ffd569" stroke-width="1.51"/><path d="M-151,398L-121,570L-50,528Z" fill="#ffaa7f" stroke="#ffaa7f" stroke-width="1.51"/><path d="M100,50L225,102L245,-27Z" fill="#fee463" stroke="#fee463" stroke-width="1.51"/><path d="M-111,777L-45,872L14,788Z" fill="#b38a7e" stroke="#b38a7e" stroke-width="1.51"/><path d="M-111,777L14,788L-29,664Z" fill="#c8907e" stroke="#c8907e" stroke-width="1.51"/><path d="M1797,85L1732,-25L1685,58Z" fill="#917869" stroke="#917869" stroke-width="1.51"/><path d="M67,-24L100,50L245,-27Z" fill="#ffe56b" stroke="#ffe56b" stroke-width="1.51"/><path d="M-45,872L-29,986L92,915Z" fill="#94807b" stroke="#94807b" stroke-width="1.51"/><path d="M-45,872L-113,1027L-29,986Z" fill="#927f7c" stroke="#927f7c" stroke-width="1.51"/><path d="M-145,660L-111,777L-29,664Z" fill="#d49481" stroke="#d49481" stroke-width="1.51"/><path d="M-121,570L-29,664L-50,528Z" fill="#f69e7f" stroke="#f69e7f" stroke-width="1.51"/><path d="M-151,398L-50,528L-15,425Z" fill="#ffb27a" stroke="#ffb27a" stroke-width="1.51"/><path d="M-8,1206L68,1238L77,1139Z" fill="#8c7369" stroke="#8c7369" stroke-width="1.51"/><path d="M77,1139L68,1238L181,1242Z" fill="#8c7265" stroke="#8c7265" stroke-width="1.51"/><path d="M-8,1206L77,1139L-49,1137Z" fill="#8d756d" stroke="#8d756d" stroke-width="1.51"/><path d="M1703,1210L1823,1239L1804,1094Z" fill="#081756" stroke="#081756" stroke-width="1.51"/><path d="M1932,1126L1958,988L1847,1028Z" fill="#081959" stroke="#081959" stroke-width="1.51"/><path d="M1847,1028L1958,988L1914,897Z" fill="#071c5d" stroke="#071c5d" stroke-width="1.51"/><path d="M1494,1254L1823,1239L1703,1210Z" fill="#071857" stroke="#071857" stroke-width="1.51"/><path d="M1922,394L1964,290L1797,306Z" fill="#8e5660" stroke="#8e5660" stroke-width="1.51"/><path d="M1797,85L1811,-15L1732,-25Z" fill="#90776a" stroke="#90776a" stroke-width="1.51"/><path d="M2083,394L1922,394L1914,513Z" fill="#8c4160" stroke="#8c4160" stroke-width="1.51"/><path d="M1932,1126L1847,1028L1804,1094Z" fill="#071958" stroke="#071958" stroke-width="1.51"/><path d="M1914,897L2073,787L1934,781Z" fill="#382060" stroke="#382060" stroke-width="1.51"/><path d="M1934,781L2082,661L1944,627Z" fill="#612561" stroke="#612561" stroke-width="1.51"/><path d="M1944,627L2082,541L1914,513Z" fill="#852863" stroke="#852863" stroke-width="1.51"/><path d="M1938,88L1811,-15L1797,85Z" fill="#8f7464" stroke="#8f7464" stroke-width="1.51"/><path d="M1732,-25L1740,-168L1625,-118Z" fill="#917c77" stroke="#917c77" stroke-width="1.51"/><path d="M-18,315L-151,398L-15,425Z" fill="#ffc076" stroke="#ffc076" stroke-width="1.51"/><path d="M-19,104L-34,161L88,195Z" fill="#fee463" stroke="#fee463" stroke-width="1.51"/><path d="M-19,104L88,195L100,50Z" fill="#ffe464" stroke="#ffe464" stroke-width="1.51"/><path d="M-151,398L-145,660L-121,570Z" fill="#ffa383" stroke="#ffa383" stroke-width="1.51"/><path d="M-121,570L-145,660L-29,664Z" fill="#e99b81" stroke="#e99b81" stroke-width="1.51"/><path d="M1964,290L1935,171L1796,213Z" fill="#8f685c" stroke="#8f685c" stroke-width="1.51"/><path d="M124,-155L67,-24L245,-27Z" fill="#ffe672" stroke="#ffe672" stroke-width="1.51"/><path d="M333,-172L209,-181L245,-27Z" fill="#ffe670" stroke="#ffe670" stroke-width="1.51"/><path d="M770,-182L209,-181L443,-170Z" fill="#ffdc71" stroke="#ffdc71" stroke-width="1.51"/><path d="M1396,-186L209,-181L770,-182Z" fill="#ffb77e" stroke="#ffb77e" stroke-width="1.51"/><path d="M-33,-8L-19,104L100,50Z" fill="#ffe66e" stroke="#ffe66e" stroke-width="1.51"/><path d="M1823,1239L1932,1126L1804,1094Z" fill="#081755" stroke="#081755" stroke-width="1.51"/><path d="M-49,1137L-29,986L-113,1027Z" fill="#907b77" stroke="#907b77" stroke-width="1.51"/><path d="M-49,1137L77,1139L-29,986Z" fill="#8f7872" stroke="#8f7872" stroke-width="1.51"/><path d="M-159,858L-45,872L-111,777Z" fill="#ab8981" stroke="#ab8981" stroke-width="1.51"/><path d="M-113,206L-18,315L-34,161Z" fill="#ffda6b" stroke="#ffda6b" stroke-width="1.51"/><path d="M-142,283L-151,398L-18,315Z" fill="#ffc876" stroke="#ffc876" stroke-width="1.51"/><path d="M1811,-15L1740,-168L1732,-25Z" fill="#907972" stroke="#907972" stroke-width="1.51"/><path d="M1625,-118L1740,-168L1396,-186Z" fill="#92807f" stroke="#92807f" stroke-width="1.51"/><path d="M1835,-162L1740,-168L1811,-15Z" fill="#8f7974" stroke="#8f7974" stroke-width="1.51"/><path d="M-145,660L-159,858L-111,777Z" fill="#c19083" stroke="#c19083" stroke-width="1.51"/><path d="M-151,398L-159,858L-145,660Z" fill="#e79b84" stroke="#e79b84" stroke-width="1.51"/><path d="M-159,858L-113,1027L-45,872Z" fill="#938280" stroke="#938280" stroke-width="1.51"/><path d="M1935,171L1938,88L1797,85Z" fill="#8f725d" stroke="#8f725d" stroke-width="1.51"/><path d="M2086,84L1938,88L1935,171Z" fill="#8d6f5b" stroke="#8d6f5b" stroke-width="1.51"/><path d="M209,-181L124,-155L245,-27Z" fill="#ffe774" stroke="#ffe774" stroke-width="1.51"/><path d="M67,-24L-33,-8L100,50Z" fill="#ffe671" stroke="#ffe671" stroke-width="1.51"/><path d="M2073,787L1914,897L2080,919Z" fill="#261d5d" stroke="#261d5d" stroke-width="1.51"/><path d="M2073,787L2082,661L1934,781Z" fill="#51215f" stroke="#51215f" stroke-width="1.51"/><path d="M1964,290L2062,228L1935,171Z" fill="#8d6459" stroke="#8d6459" stroke-width="1.51"/><path d="M2080,919L1914,897L1958,988Z" fill="#071b5d" stroke="#071b5d" stroke-width="1.51"/><path d="M-150,105L-113,206L-34,161Z" fill="#ffe56a" stroke="#ffe56a" stroke-width="1.51"/><path d="M-150,105L-34,161L-19,104Z" fill="#ffe66c" stroke="#ffe66c" stroke-width="1.51"/><path d="M2082,661L2082,541L1944,627Z" fill="#772560" stroke="#772560" stroke-width="1.51"/><path d="M-113,206L-142,283L-18,315Z" fill="#ffd370" stroke="#ffd370" stroke-width="1.51"/><path d="M2085,312L2083,394L2082,541Z" fill="#89415c" stroke="#89415c" stroke-width="1.51"/><path d="M2082,541L2083,394L1914,513Z" fill="#8a355f" stroke="#8a355f" stroke-width="1.51"/><path d="M-113,206L-150,105L-142,283Z" fill="#ffe06f" stroke="#ffe06f" stroke-width="1.51"/><path d="M-47,-119L-33,-8L67,-24Z" fill="#ffe87a" stroke="#ffe87a" stroke-width="1.51"/><path d="M-113,1027L-120,1113L-49,1137Z" fill="#8e7976" stroke="#8e7976" stroke-width="1.51"/><path d="M-49,1137L-134,1244L-8,1206Z" fill="#8c756f" stroke="#8c756f" stroke-width="1.51"/><path d="M-159,858L-120,1113L-113,1027Z" fill="#907e7d" stroke="#907e7d" stroke-width="1.51"/><path d="M2079,1012L2080,919L1958,988Z" fill="#071958" stroke="#071958" stroke-width="1.51"/><path d="M2073,787L2080,919L2082,661Z" fill="#421e5c" stroke="#421e5c" stroke-width="1.51"/><path d="M2083,394L2085,312L1964,290Z" fill="#8b515b" stroke="#8b515b" stroke-width="1.51"/><path d="M2082,661L2085,312L2082,541Z" fill="#892e5e" stroke="#892e5e" stroke-width="1.51"/><path d="M2080,919L2085,312L2082,661Z" fill="#70225e" stroke="#70225e" stroke-width="1.51"/><path d="M2085,312L2062,228L1964,290Z" fill="#8b5b58" stroke="#8b5b58" stroke-width="1.51"/><path d="M1943,-41L1835,-162L1811,-15Z" fill="#8e766e" stroke="#8e766e" stroke-width="1.51"/><path d="M1943,-41L1811,-15L1938,88Z" fill="#8e7466" stroke="#8e7466" stroke-width="1.51"/><path d="M1972,1252L2026,1130L1932,1126Z" fill="#081350" stroke="#081350" stroke-width="1.51"/><path d="M1932,1126L2026,1130L1958,988Z" fill="#081655" stroke="#081655" stroke-width="1.51"/><path d="M2026,1130L2079,1012L1958,988Z" fill="#081755" stroke="#081755" stroke-width="1.51"/><path d="M1823,1239L1972,1252L1932,1126Z" fill="#081350" stroke="#081350" stroke-width="1.51"/><path d="M2026,1130L2051,1240L2079,1012Z" fill="#08124f" stroke="#08124f" stroke-width="1.51"/><path d="M1494,1254L1972,1252L1823,1239Z" fill="#081553" stroke="#081553" stroke-width="1.51"/><path d="M1268,1258L1972,1252L1494,1254Z" fill="#081a5a" stroke="#081a5a" stroke-width="1.51"/><path d="M2061,-4L1943,-41L1938,88Z" fill="#8d7163" stroke="#8d7163" stroke-width="1.51"/><path d="M-33,-8L-150,105L-19,104Z" fill="#ffe772" stroke="#ffe772" stroke-width="1.51"/><path d="M-142,283L-150,105L-151,398Z" fill="#ffd574" stroke="#ffd574" stroke-width="1.51"/><path d="M-151,398L-150,105L-159,858Z" fill="#ffb37f" stroke="#ffb37f" stroke-width="1.51"/><path d="M-120,1113L-134,1244L-49,1137Z" fill="#8c7672" stroke="#8c7672" stroke-width="1.51"/><path d="M-8,1206L-134,1244L68,1238Z" fill="#8b726a" stroke="#8b726a" stroke-width="1.51"/><path d="M68,1238L-134,1244L181,1242Z" fill="#8b7167" stroke="#8b7167" stroke-width="1.51"/><path d="M181,1242L-134,1244L545,1254Z" fill="#8b6f5d" stroke="#8b6f5d" stroke-width="1.51"/><path d="M-159,858L-134,1244L-120,1113Z" fill="#8e7b79" stroke="#8e7b79" stroke-width="1.51"/><path d="M-33,-8L-112,-33L-150,105Z" fill="#ffe878" stroke="#ffe878" stroke-width="1.51"/><path d="M124,-155L-47,-119L67,-24Z" fill="#ffe97b" stroke="#ffe97b" stroke-width="1.51"/><path d="M-142,-167L-47,-119L124,-155Z" fill="#ffea84" stroke="#ffea84" stroke-width="1.51"/><path d="M-47,-119L-112,-33L-33,-8Z" fill="#ffe97e" stroke="#ffe97e" stroke-width="1.51"/><path d="M1972,1252L2051,1240L2026,1130Z" fill="#08104d" stroke="#08104d" stroke-width="1.51"/><path d="M2062,228L2086,84L1935,171Z" fill="#8c6d55" stroke="#8c6d55" stroke-width="1.51"/><path d="M1943,-41L1938,-181L1835,-162Z" fill="#8d7671" stroke="#8d7671" stroke-width="1.51"/><path d="M2085,312L2086,84L2062,228Z" fill="#8b6454" stroke="#8b6454" stroke-width="1.51"/><path d="M2069,-156L1938,-181L1943,-41Z" fill="#8b746e" stroke="#8b746e" stroke-width="1.51"/><path d="M1835,-162L1938,-181L1740,-168Z" fill="#8d7977" stroke="#8d7977" stroke-width="1.51"/><path d="M1740,-168L1938,-181L1396,-186Z" fill="#907e7d" stroke="#907e7d" stroke-width="1.51"/><path d="M2086,84L2061,-4L1938,88Z" fill="#8b6f5e" stroke="#8b6f5e" stroke-width="1.51"/><path d="M-47,-119L-142,-167L-112,-33Z" fill="#ffeb85" stroke="#ffeb85" stroke-width="1.51"/><path d="M-112,-33L-142,-167L-150,105Z" fill="#ffe980" stroke="#ffe980" stroke-width="1.51"/><path d="M209,-181L-142,-167L124,-155Z" fill="#ffe981" stroke="#ffe981" stroke-width="1.51"/><path d="M2061,-4L2069,-156L1943,-41Z" fill="#8b7267" stroke="#8b7267" stroke-width="1.51"/><path d="M2086,84L2069,-156L2061,-4Z" fill="#8b7063" stroke="#8b7063" stroke-width="1.51"/></svg>